<?xml version="1.0" encoding="utf-8"?>
<!-- Generator: Adobe Illustrator 16.0.0, SVG Export Plug-In . SVG Version: 6.00 Build 0)  -->
<!DOCTYPE svg PUBLIC "-//W3C//DTD SVG 1.1//EN" "http://www.w3.org/Graphics/SVG/1.1/DTD/svg11.dtd">
<svg version="1.1" id="Layer_1" xmlns="http://www.w3.org/2000/svg" xmlns:xlink="http://www.w3.org/1999/xlink" x="0px" y="0px"
	 width="109px" height="35.334px" viewBox="0 0 109 35.334" enable-background="new 0 0 109 35.334" xml:space="preserve">
<g>
	<path d="M3.884,4.144h15.387v3.234H7.558v7.496h8.909v3.234H7.558v11.685H3.884V4.144z"/>
	<path d="M30.893,4.144h3.858l10.84,25.648h-4.005l-2.609-6.467H26.41l-2.608,6.467h-3.859L30.893,4.144z M32.693,7.598
		l-5.107,12.713h10.215L32.693,7.598z"/>
	<path d="M59.819,26.484c-0.499,0.044-1.011,0.074-1.551,0.074H54.41V7.377h4.299c5.115,0,9.086,3.304,9.346,8.934l3.206-3.96
		c-1.812-5.215-6.891-8.208-12.956-8.208h-7.569v25.648h6.404L59.819,26.484z"/>
	<g>
		<g>
			<g>
				<path d="M69.744,18.841h2.017v0.364h-1.596v1.512h1.523v0.364h-1.523v1.997h-0.421V18.841z"/>
				<path d="M73.454,18.841h0.474l1.682,4.237h-0.438l-0.454-1.134h-2.139l-0.454,1.134h-0.407L73.454,18.841z M73.661,19.242
					l-0.923,2.337h1.84L73.661,19.242z"/>
				<path d="M79.119,19.315c-0.268-0.14-0.65-0.182-0.947-0.182c-1.1,0-1.719,0.776-1.719,1.827c0,1.069,0.602,1.827,1.719,1.827
					c0.279,0,0.703-0.035,0.947-0.181l0.023,0.365c-0.23,0.139-0.704,0.182-0.971,0.182c-1.336,0-2.138-0.881-2.138-2.192
					c0-1.287,0.826-2.192,2.138-2.192c0.248,0,0.753,0.042,0.971,0.158L79.119,19.315z"/>
				<path d="M83.302,21.598c0,1.251-0.918,1.555-1.536,1.555c-0.619,0-1.536-0.304-1.536-1.555v-2.756h0.419v2.756
					c0,0.691,0.382,1.189,1.117,1.189c0.734,0,1.116-0.498,1.116-1.189v-2.756h0.42V21.598z"/>
				<path d="M84.272,18.841h0.419v3.874h1.7v0.363h-2.119V18.841z"/>
				<path d="M87.234,19.206h-1.25v-0.364h2.92v0.364h-1.25v3.873h-0.42V19.206z"/>
				<path d="M90.361,18.841h0.474l1.683,4.237H92.08l-0.456-1.134h-2.137l-0.456,1.134h-0.407L90.361,18.841z M90.568,19.242
					l-0.924,2.337h1.84L90.568,19.242z"/>
				<path d="M93.08,18.841h1.052c1.517,0,2.119,0.874,2.119,2.113c0,1.536-1.026,2.124-2.429,2.124H93.08V18.841z M93.501,22.715
					h0.345c1.202,0,1.985-0.486,1.985-1.786c0-1.293-0.771-1.724-1.718-1.724h-0.612V22.715z"/>
				<path d="M98.818,18.841h1.05c1.519,0,2.119,0.874,2.119,2.113c0,1.536-1.025,2.124-2.43,2.124h-0.739V18.841z M99.236,22.715
					h0.348c1.201,0,1.984-0.486,1.984-1.786c0-1.293-0.771-1.724-1.718-1.724h-0.614V22.715z"/>
				<path d="M102.904,18.841h2.075v0.364h-1.657v1.512h1.573v0.364h-1.573v1.633h1.731v0.363h-2.149V18.841z"/>
			</g>
		</g>
		<g>
			<g>
				<path d="M63.97,25.558h0.475l1.681,4.237h-0.438l-0.455-1.134h-2.137l-0.456,1.134h-0.407L63.97,25.558z M64.177,25.958
					l-0.923,2.339h1.839L64.177,25.958z"/>
				<path d="M66.738,25.558h1.093c0.754,0,1.245,0.322,1.245,1.1c0,0.546-0.42,0.91-0.941,0.977v0.014
					c0.34,0.041,0.413,0.224,0.547,0.509l0.722,1.639h-0.461l-0.613-1.432c-0.242-0.547-0.425-0.565-0.825-0.565h-0.347v1.997
					h-0.419V25.558z M67.157,27.435h0.443c0.491,0,1.056-0.188,1.056-0.777c0-0.693-0.492-0.734-1.069-0.734h-0.43V27.435z"/>
				<path d="M70.927,25.923h-1.25v-0.365h2.92v0.365h-1.251v3.872h-0.419V25.923z"/>
				<path d="M73.174,25.558h2.076v0.365h-1.658v1.512h1.572v0.363h-1.572v1.633h1.729v0.364h-2.147V25.558z"/>
				<path d="M76.093,29.255c0.249,0.158,0.541,0.249,0.935,0.249c0.522,0,0.954-0.268,0.954-0.867c0-0.833-1.943-0.936-1.943-2.047
					c0-0.68,0.596-1.104,1.342-1.104c0.207,0,0.541,0.029,0.833,0.139l-0.067,0.382c-0.188-0.103-0.486-0.157-0.771-0.157
					c-0.438,0-0.917,0.182-0.917,0.729c0,0.851,1.944,0.856,1.944,2.094c0,0.855-0.736,1.196-1.392,1.196
					c-0.413,0-0.734-0.085-0.959-0.182L76.093,29.255z"/>
				<path d="M82.055,27.998l-1.573-2.44h0.486l1.294,2.07l1.329-2.07h0.454l-1.571,2.44v1.797h-0.419V27.998z"/>
				<path d="M86.292,25.558h1.05c1.518,0,2.12,0.875,2.12,2.113c0,1.535-1.026,2.124-2.429,2.124h-0.741V25.558z M86.711,29.431
					h0.346c1.202,0,1.986-0.485,1.986-1.783c0-1.294-0.772-1.725-1.719-1.725h-0.613V29.431z"/>
				<path d="M90.322,25.558h0.42v4.237h-0.42V25.558z"/>
				<path d="M91.61,29.255c0.249,0.158,0.54,0.249,0.934,0.249c0.523,0,0.954-0.268,0.954-0.867c0-0.833-1.943-0.936-1.943-2.047
					c0-0.68,0.596-1.104,1.343-1.104c0.206,0,0.539,0.029,0.832,0.139l-0.068,0.382c-0.188-0.103-0.485-0.157-0.771-0.157
					c-0.438,0-0.916,0.182-0.916,0.729c0,0.851,1.943,0.856,1.943,2.094c0,0.855-0.735,1.196-1.392,1.196
					c-0.413,0-0.734-0.085-0.959-0.182L91.61,29.255z"/>
				<path d="M94.762,25.558h2.075v0.365H95.18v1.512h1.572v0.363H95.18v1.633h1.729v0.364h-2.147V25.558z"/>
				<path d="M97.742,25.558h0.527l2.155,3.728h0.013v-3.728h0.419v4.237h-0.564l-2.119-3.654H98.16v3.654h-0.418V25.558z
					 M98.464,25.248c0.055-0.262,0.207-0.547,0.492-0.547c0.122,0,0.255,0.037,0.37,0.073c0.116,0.037,0.219,0.078,0.267,0.078
					c0.128,0,0.262-0.072,0.298-0.205h0.225c-0.061,0.443-0.352,0.534-0.503,0.534c-0.141,0-0.267-0.043-0.378-0.079
					c-0.107-0.036-0.205-0.073-0.285-0.073c-0.157,0-0.212,0.073-0.268,0.219H98.464z"/>
				<path d="M103.515,25.486c1.275,0,1.876,1.044,1.864,2.19c-0.013,1.3-0.645,2.191-1.864,2.191c-1.221,0-1.852-0.892-1.863-2.191
					C101.639,26.53,102.239,25.486,103.515,25.486z M102.069,27.677c0,0.898,0.45,1.827,1.445,1.827s1.444-0.929,1.444-1.827
					s-0.449-1.827-1.444-1.827S102.069,26.778,102.069,27.677z"/>
			</g>
		</g>
	</g>
	<g>
		<path fill="#A08859" d="M87.201,14.871c0,1.189-0.602,1.827-1.645,1.827s-1.645-0.637-1.645-1.827V12.39h0.607v2.403
			c0,0.813,0.254,1.371,1.037,1.371c0.782,0,1.038-0.558,1.038-1.371V12.39h0.606V14.871z"/>
		<path fill="#A08859" d="M89.496,12.39h0.824l1.868,3.409h0.014V12.39h0.605v4.235h-0.776l-1.917-3.482h-0.013v3.482h-0.605V12.39z
			"/>
		<path fill="#A08859" d="M96.316,12.39h0.637l1.79,4.235h-0.66l-0.432-1.067h-2.075l-0.431,1.067h-0.637L96.316,12.39z
			 M96.614,12.96l-0.844,2.099h1.688L96.614,12.96z"/>
		<path fill="#A08859" d="M100.455,12.39h1.002l1.329,3.519l1.303-3.519h1.002v4.235h-0.606V12.96h-0.012l-1.402,3.665h-0.595
			l-1.401-3.665h-0.011v3.665h-0.608V12.39z"/>
	</g>
</g>
</svg>
